<?xml version="1.0" encoding="UTF-8"?>
<svg version="1.1" xmlns="http://www.w3.org/2000/svg" width="32" height="32">
<path d="M0 0 C10.56 0 21.12 0 32 0 C32 10.56 32 21.12 32 32 C21.44 32 10.88 32 0 32 C0 21.44 0 10.88 0 0 Z " fill="#3E9AD3" transform="translate(0,0)"/>
<path d="M0 0 C7.6617779 0.63676975 7.6617779 0.63676975 11.1640625 2.5546875 C13.26550895 6.47101952 13.94590194 10.6863361 13.5390625 15.1171875 C12.3515625 16.9296875 12.3515625 16.9296875 10.5390625 18.1171875 C6.1082111 18.52402694 1.89289452 17.84363395 -2.0234375 15.7421875 C-4.32825411 11.53339195 -4.68777781 6.88083399 -4.4609375 2.1171875 C-2.4609375 0.1171875 -2.4609375 0.1171875 0 0 Z " fill="#EFF6FA" transform="translate(11.4609375,6.8828125)"/>
<path d="M0 0 C3 2 3 2 3.6171875 4.27734375 C3.70226563 5.15519531 3.78734375 6.03304688 3.875 6.9375 C3.97554687 7.81277344 4.07609375 8.68804687 4.1796875 9.58984375 C4 12 4 12 2.76953125 13.8359375 C-0.42231652 15.93565193 -3.37984075 14.6528156 -7 14 C-6.38125 13.71125 -5.7625 13.4225 -5.125 13.125 C-2.86674235 12.06279958 -2.86674235 12.06279958 -1 10 C-1 9.01 -1 8.02 -1 7 C-2.98 6.34 -4.96 5.68 -7 5 C-7 4.01 -7 3.02 -7 2 C-2.25 2.875 -2.25 2.875 0 4 C0 2.68 0 1.36 0 0 Z " fill="#F0F7FB" transform="translate(21,10)"/>
<path d="M0 0 C3.625 0.375 3.625 0.375 7 1 C6.67 1.99 6.34 2.98 6 4 C3.525 3.01 3.525 3.01 1 2 C1 2.99 1 3.98 1 5 C3.97 5.495 3.97 5.495 7 6 C7.625 7.875 7.625 7.875 8 10 C6 12 6 12 3 12.1875 C0 12 0 12 -2 11 C-2 10.01 -2 9.02 -2 8 C0.31 8.66 2.62 9.32 5 10 C5 9.34 5 8.68 5 8 C4.030625 7.7525 3.06125 7.505 2.0625 7.25 C-1 6 -1 6 -2 4 C-2 2 -2 2 0 0 Z " fill="#51A6DA" transform="translate(13,10)"/>
</svg>
