<?xml version="1.0" encoding="UTF-8"?>
<svg version="1.1" xmlns="http://www.w3.org/2000/svg" width="512" height="512">
<path d="M0 0 C1.26456065 -0.00445784 2.52912131 -0.00891569 3.83200198 -0.01350862 C5.23294756 -0.01341933 6.63389313 -0.01322949 8.03483868 -0.01294994 C9.52505437 -0.01625045 11.01526918 -0.01997641 12.50548285 -0.02409142 C16.60206894 -0.03409877 20.69864037 -0.0378262 24.79523695 -0.04048073 C29.21336225 -0.04438767 33.63147601 -0.0539659 38.04959393 -0.0626936 C48.72176168 -0.08244941 59.39393037 -0.09252416 70.06611183 -0.10142139 C75.0953374 -0.10580667 80.12456192 -0.11117295 85.15378666 -0.11641026 C101.87918186 -0.13342342 118.60457642 -0.14791591 135.32997894 -0.155159 C139.66964309 -0.15706881 144.00930724 -0.15898915 148.34897137 -0.16094494 C149.42754005 -0.16142868 150.50610874 -0.16191242 151.61736133 -0.16241082 C169.0755885 -0.17070479 186.53374702 -0.19603062 203.99194423 -0.22852562 C221.92773798 -0.26163648 239.86349689 -0.27961149 257.79932135 -0.28280324 C267.86471545 -0.28496486 277.93000948 -0.2936622 287.99537373 -0.31926441 C296.57079127 -0.34102666 305.14608446 -0.34899482 313.72152648 -0.33929763 C318.09214074 -0.33476858 322.46249872 -0.33655721 326.83307743 -0.35605907 C330.84496049 -0.37380466 334.8564025 -0.37260193 338.86829098 -0.35716178 C340.30920272 -0.35480281 341.75014592 -0.35901896 343.19100986 -0.37099043 C356.19510441 -0.47222386 369.34337866 1.54710286 380.94784832 7.75922108 C381.60019451 8.09840565 382.2525407 8.43759022 382.92465496 8.78705311 C402.53376336 19.35112343 417.07736591 36.47296598 423.92050457 57.73968983 C427.48201549 70.26242177 427.90976799 82.42331993 427.89406109 95.40855885 C427.89593355 96.81335727 427.89823597 98.21815518 427.90092641 99.62295228 C427.90699708 103.45096236 427.90691645 107.27895045 427.90573204 111.10696423 C427.90552682 115.24822484 427.91105822 119.3894786 427.9157896 123.53073597 C427.92407063 131.63215394 427.92684329 139.73356462 427.92740198 147.83498647 C427.92787834 154.42494451 427.92993907 161.01490016 427.93310261 167.60485744 C427.94190214 186.31794179 427.94652307 205.03102042 427.94577213 223.74410685 C427.9457122 225.25507838 427.9457122 225.25507838 427.94565105 226.79657459 C427.94561017 227.80512893 427.94556929 228.81368328 427.94552717 229.85279987 C427.94512088 246.19117442 427.95468816 262.5295259 427.96878942 278.86789378 C427.98317805 295.67277182 427.99005824 312.47763863 427.98919564 329.28252298 C427.98886454 338.70561976 427.9915736 348.12869235 428.0023737 357.55178356 C428.01151147 365.57545138 428.01362715 373.59908405 428.00686427 381.62275483 C428.00361558 385.70993169 428.00348214 389.79704123 428.01221752 393.88421154 C428.07183725 423.69939778 428.02495555 452.70054644 406.76034832 476.13422108 C406.02171551 476.96566639 405.2830827 477.7971117 404.52206707 478.65375233 C390.8353313 493.23651008 371.72978941 502.48201658 351.76034832 504.13422108 C347.00882281 504.28253979 342.25810178 504.27806041 337.50473309 504.27466297 C336.0531764 504.27724976 334.60162042 504.28026379 333.15006542 504.28366637 C329.17427088 504.29170289 325.19849443 504.29352407 321.22269273 504.29426384 C316.92936711 504.29612027 312.63605075 504.30367059 308.34273052 504.31039906 C298.96019906 504.32395946 289.57767188 504.33000362 280.19513226 504.33440971 C274.33145336 504.33717622 268.46777611 504.34141434 262.60409832 504.34591389 C246.35467921 504.35810395 230.10526141 504.36840353 213.85583782 504.37178898 C212.29694661 504.37211833 212.29694661 504.37211833 210.70656264 504.37245433 C209.66487815 504.37267261 208.62319366 504.37289089 207.54994297 504.37311578 C205.43925126 504.37355924 203.32855956 504.3740058 201.21786785 504.37445545 C200.17090182 504.37467688 199.12393578 504.37489831 198.0452435 504.37512645 C181.0916091 504.37907204 164.13801775 504.39651997 147.18439996 504.41981497 C129.75927651 504.44356365 112.33417462 504.45599244 94.90903473 504.4571569 C85.13322192 504.45807172 75.3574652 504.46377535 65.5816679 504.48197651 C57.25520083 504.49742507 48.92880717 504.50247004 40.60232848 504.49423841 C36.35932707 504.49034858 32.1164733 504.49117928 27.87349033 504.50529575 C23.9783632 504.51813557 20.08349311 504.51675003 16.18836582 504.50470504 C14.7899421 504.50276531 13.39149954 504.50574523 11.99310219 504.5145494 C-12.67812764 504.65986389 -35.02930531 497.22013341 -53.23965168 480.13422108 C-71.45963733 460.99732056 -77.58165581 438.31488145 -77.49361897 412.37776661 C-77.49592892 410.93284287 -77.499109 409.48792031 -77.50307345 408.04300016 C-77.51135683 404.10881689 -77.50732586 400.1747317 -77.50110102 396.24054825 C-77.49655081 391.98347565 -77.50357298 387.72641919 -77.50906086 383.46934986 C-77.51792945 375.14380442 -77.51604411 366.81829515 -77.51023558 358.49274833 C-77.50570879 351.72258049 -77.50511058 344.95242275 -77.50728321 338.18225384 C-77.50758968 337.21668089 -77.50789614 336.25110795 -77.5082119 335.25627522 C-77.50885138 333.2943854 -77.50949981 331.33249558 -77.51015708 329.37060576 C-77.51585303 310.9963827 -77.50931418 292.62217963 -77.49855635 274.24795984 C-77.48962293 258.50276152 -77.49117258 242.7575927 -77.50039387 227.01239491 C-77.51111195 208.70301832 -77.51530228 190.39365924 -77.50916934 172.08427995 C-77.50853228 170.12952133 -77.50790354 168.17476271 -77.50728321 166.22000408 C-77.50697466 165.2583703 -77.50666611 164.29673651 -77.50634821 163.30596231 C-77.50462577 156.54919273 -77.50752664 149.79243432 -77.51224232 143.03566647 C-77.51786832 134.7938108 -77.51629873 126.55199321 -77.50568083 118.31014187 C-77.50044697 114.10991817 -77.49832809 109.90975779 -77.50497913 105.70953465 C-77.51098849 101.85607937 -77.50758231 98.00274543 -77.49702403 94.14930099 C-77.49377176 92.11331457 -77.50021614 90.07731956 -77.50713849 88.04134232 C-77.45949059 76.72162061 -76.61113283 65.33491972 -72.67715168 54.63422108 C-72.42103107 53.92773426 -72.16491047 53.22124744 -71.90102863 52.49335194 C-63.93267744 31.68878779 -47.1737892 15.31246857 -27.17568684 5.95941639 C-22.04229388 3.77141284 -16.67127888 2.37633737 -11.23965168 1.13422108 C-10.4809861 0.95772913 -9.72232051 0.78123719 -8.94066507 0.599397 C-5.91258967 0.07789356 -3.07320412 0.00503293 0 0 Z " fill="#3E9DD7" transform="translate(80.23965167999268,1.865778923034668)"/>
<path d="M0 0 C5.19029483 2.92715685 9.18332213 3.47688857 15.07278442 3.22433472 C15.90424484 3.20918823 16.73570526 3.19404175 17.59236145 3.17843628 C21.1045501 3.11407567 24.61477069 3.00291701 28.12576294 2.89230347 C45.08707114 2.40545258 60.76060996 4.34655175 76.45950317 11.16183472 C77.37497925 11.54839233 78.29045532 11.93494995 79.2336731 12.33322144 C95.26962355 19.28752314 108.45223234 29.11048839 121.20950317 40.97433472 C121.87723755 41.5763269 122.54497192 42.17831909 123.23294067 42.79855347 C144.05038521 62.38394517 157.58977234 91.67385654 160.20950317 119.97433472 C160.26307087 122.66957396 160.27856693 125.33985748 160.24465942 128.03292847 C160.1934682 151.57952499 160.1934682 151.57952499 169.20950317 172.97433472 C176.56998481 191.36314743 174.97952123 214.07459297 167.33255005 232.03390503 C157.42859611 253.68171943 140.08987154 268.43199647 118.11184692 277.00949097 C98.46462159 283.54093734 76.62638376 280.61259295 58.20950317 271.97433472 C57.58274185 271.62395142 56.95598053 271.27356812 56.31022644 270.91256714 C54.02005062 269.88972075 52.56583834 269.74196109 50.07449341 269.77902222 C49.26942856 269.78562866 48.46436371 269.79223511 47.63490295 269.79904175 C46.33958397 269.82393677 46.33958397 269.82393677 45.01809692 269.84933472 C44.11761124 269.85690796 43.21712555 269.8644812 42.28935242 269.87228394 C38.44732009 269.90483491 34.60571833 269.96069562 30.76394653 270.01535034 C10.20957729 270.28267849 10.20957729 270.28267849 1.20950317 267.97433472 C-0.03057495 267.70234253 -1.27065308 267.43035034 -2.54830933 267.15011597 C-23.19668096 261.85627591 -41.42451586 252.64827466 -57.79049683 238.97433472 C-58.56006714 238.33455688 -58.56006714 238.33455688 -59.34518433 237.68185425 C-82.57899549 218.09675391 -100.27546494 187.34678414 -103.79049683 156.97433472 C-103.99555289 153.45256174 -104.04345343 149.93908898 -104.05612183 146.41183472 C-104.05956604 145.48354858 -104.06301025 144.55526245 -104.06655884 143.59884644 C-104.06828509 139.7590076 -104.05374565 135.92026893 -103.99996948 132.08078003 C-103.86446622 120.49819714 -104.35421779 111.46545135 -110.0475769 101.21456909 C-118.62223127 85.27356717 -118.10933248 63.58403306 -113.10690308 46.60714722 C-105.03809002 24.34009636 -90.01462798 7.88957041 -68.71627808 -2.52957153 C-46.8201822 -12.11805796 -21.09002816 -12.08117735 0 0 Z " fill="#FCFDFD" transform="translate(226.79049682617188,118.02566528320313)"/>
<path d="M0 0 C7.86068669 6.21469055 17.08184258 13.86980455 18.43359375 24.3671875 C18.448527 37.77724559 18.448527 37.77724559 14 43 C10.29087196 46.28656915 6.19335474 47.80454046 1.16015625 47.50390625 C-6.69221746 45.67215904 -12.58621074 39.68153683 -18.30859375 34.37109375 C-30.36866648 23.74632721 -43.78044234 16.40721769 -60.0703125 16.72265625 C-69.85450493 17.41319071 -78.53581321 21.90691723 -85.66796875 28.5546875 C-89.28486105 32.78959221 -89.55850619 36.81076464 -89.56640625 42.25390625 C-88.58763268 46.99927051 -86.28850985 50.04583792 -82.42578125 52.90625 C-69.90906435 59.31380395 -56.36788479 61.74926008 -42.71386719 64.71337891 C-19.10831892 69.88307193 5.46183443 77.12544005 20.07421875 97.95703125 C26.70356113 108.78356734 30.53175286 120.23286528 27.52685547 133.01220703 C22.33372517 150.99368783 10.28530069 164.9752292 -6 174 C-29.41494117 186.21797075 -58.80394045 187.83094008 -84.09912109 180.38183594 C-101.24431459 174.9046223 -119.87026831 165.79883242 -129.31640625 149.765625 C-132.59537173 142.7735453 -132.93429373 135.60647222 -132 128 C-129.64941816 122.95060198 -126.00068156 119.50034078 -121 117 C-118.75 116.7265625 -118.75 116.7265625 -116 116.625 C-115.113125 116.57601562 -114.22625 116.52703125 -113.3125 116.4765625 C-103.62690547 118.00706918 -97.52027306 123.97583499 -91.125 130.9375 C-84.56747116 137.76687167 -79.1184184 142.9561349 -70 146 C-69.14921875 146.32871094 -68.2984375 146.65742188 -67.421875 146.99609375 C-61.74565364 148.90799466 -56.25020007 149.26741496 -50.3125 149.3125 C-49.26122925 149.32095947 -49.26122925 149.32095947 -48.1887207 149.32958984 C-38.94619678 149.20129696 -30.05745993 146.71238804 -23.16796875 140.29296875 C-18.66189269 135.26063563 -16.46908042 130.94186564 -16.69140625 123.984375 C-17.31475112 119.9760308 -19.46167257 117.28994649 -22.51660156 114.72827148 C-26.52371349 111.80066669 -30.44394268 109.75442169 -35.1875 108.25 C-35.9201709 108.00958984 -36.6528418 107.76917969 -37.40771484 107.52148438 C-43.09054394 105.73402671 -48.84029016 104.25700585 -54.62109375 102.828125 C-55.39525131 102.63671936 -56.16940887 102.44531372 -56.96702576 102.24810791 C-60.87487928 101.28669786 -64.78602882 100.34276144 -68.70385742 99.42285156 C-76.17685974 97.64330044 -83.46572662 95.65124042 -90.671875 92.97265625 C-91.30634552 92.73804688 -91.94081604 92.5034375 -92.59451294 92.26171875 C-99.26038481 89.68439438 -105.12632499 86.04612055 -111 82 C-111.61230469 81.59265625 -112.22460938 81.1853125 -112.85546875 80.765625 C-121.54260807 74.3376077 -127.5849835 63.33582748 -130 53 C-132.30844895 35.88632567 -127.16672319 20.85700384 -117 7 C-108.49897657 -3.43674034 -96.83005084 -10.25413184 -84 -14 C-83.07574219 -14.29777344 -82.15148437 -14.59554687 -81.19921875 -14.90234375 C-54.90350848 -22.30334132 -22.29542231 -15.28113214 0 0 Z " fill="#3F9DD7" transform="translate(308,174)"/>
</svg>
