<?xml version="1.0" encoding="UTF-8"?>
<!DOCTYPE svg PUBLIC "-//W3C//DTD SVG 1.1//EN" "http://www.w3.org/Graphics/SVG/1.1/DTD/svg11.dtd">
<svg xmlns="http://www.w3.org/2000/svg" version="1.1" width="32px" height="32px" style="shape-rendering:geometricPrecision; text-rendering:geometricPrecision; image-rendering:optimizeQuality; fill-rule:evenodd; clip-rule:evenodd" xmlns:xlink="http://www.w3.org/1999/xlink">
<g><path style="opacity:0.974" fill="#2189e5" d="M 4.5,-0.5 C 11.8333,-0.5 19.1667,-0.5 26.5,-0.5C 28.5,0.833333 30.1667,2.5 31.5,4.5C 31.5,11.8333 31.5,19.1667 31.5,26.5C 30.1667,28.5 28.5,30.1667 26.5,31.5C 19.1667,31.5 11.8333,31.5 4.5,31.5C 2.5,30.1667 0.833333,28.5 -0.5,26.5C -0.5,19.1667 -0.5,11.8333 -0.5,4.5C 0.833333,2.5 2.5,0.833333 4.5,-0.5 Z"/></g>
<g><path style="opacity:1" fill="#f5f9fd" d="M 10.5,5.5 C 16.7013,4.285 21.8679,5.95167 26,10.5C 28.648,17.6965 26.148,22.1965 18.5,24C 14.294,24.2608 10.1274,24.7608 6,25.5C 5.5,25.1667 5,24.8333 4.5,24.5C 4.98672,23.5539 5.32006,22.5539 5.5,21.5C 1.98661,14.5307 3.65328,9.19741 10.5,5.5 Z"/></g>
<g><path style="opacity:1" fill="#4596e8" d="M 8.5,13.5 C 9.83333,13.5 11.1667,13.5 12.5,13.5C 12.5,14.5 12.5,15.5 12.5,16.5C 11.1667,16.5 9.83333,16.5 8.5,16.5C 8.5,15.5 8.5,14.5 8.5,13.5 Z"/></g>
<g><path style="opacity:1" fill="#3e93e7" d="M 13.5,13.5 C 14.8333,13.5 16.1667,13.5 17.5,13.5C 17.5,14.5 17.5,15.5 17.5,16.5C 16.1667,16.5 14.8333,16.5 13.5,16.5C 13.5,15.5 13.5,14.5 13.5,13.5 Z"/></g>
<g><path style="opacity:1" fill="#4596e8" d="M 18.5,13.5 C 19.8333,13.5 21.1667,13.5 22.5,13.5C 22.5,14.5 22.5,15.5 22.5,16.5C 21.1667,16.5 19.8333,16.5 18.5,16.5C 18.5,15.5 18.5,14.5 18.5,13.5 Z"/></g>
</svg>
