<?xml version="1.0" encoding="UTF-8"?>
<!DOCTYPE svg PUBLIC "-//W3C//DTD SVG 1.1//EN" "http://www.w3.org/Graphics/SVG/1.1/DTD/svg11.dtd">
<svg xmlns="http://www.w3.org/2000/svg" version="1.1" width="512px" height="512px" style="shape-rendering:geometricPrecision; text-rendering:geometricPrecision; image-rendering:optimizeQuality; fill-rule:evenodd; clip-rule:evenodd" xmlns:xlink="http://www.w3.org/1999/xlink">
<g><path style="opacity:0.998" fill="#1e88e5" d="M 132.5,-0.5 C 214.5,-0.5 296.5,-0.5 378.5,-0.5C 453.831,12.8313 498.165,57.1646 511.5,132.5C 511.5,214.5 511.5,296.5 511.5,378.5C 498.165,453.835 453.831,498.169 378.5,511.5C 296.5,511.5 214.5,511.5 132.5,511.5C 57.6258,498.292 13.2924,454.292 -0.5,379.5C -0.5,296.833 -0.5,214.167 -0.5,131.5C 13.2924,56.7075 57.6258,12.7075 132.5,-0.5 Z"/></g>
<g><path style="opacity:1" fill="#fefefe" d="M 232.5,93.5 C 289.636,88.5292 341.302,102.696 387.5,136C 417.308,158.827 436.141,188.66 444,225.5C 449.504,276.328 433.004,318.495 394.5,352C 353.102,384.967 305.768,401.134 252.5,400.5C 228.953,400.254 205.953,396.587 183.5,389.5C 155.802,398.566 128.135,407.733 100.5,417C 88.4994,418.664 83.6661,413.497 86,401.5C 92.6007,381.865 99.1007,362.198 105.5,342.5C 90.199,325.587 78.699,306.253 71,284.5C 58.7809,238.459 67.7809,197.125 98,160.5C 134.288,121.273 179.121,98.9396 232.5,93.5 Z"/></g>
<g><path style="opacity:1" fill="#2188e5" d="M 166.5,215.5 C 190.87,215.371 203.037,227.371 203,251.5C 197.719,271.905 184.552,280.405 163.5,277C 146.645,270.13 139.479,257.63 142,239.5C 146.111,227.221 154.278,219.221 166.5,215.5 Z"/></g>
<g><path style="opacity:1" fill="#2289e5" d="M 249.5,215.5 C 274.83,215.661 286.996,228.328 286,253.5C 280.195,271.827 267.695,279.661 248.5,277C 230.183,271.22 222.35,258.72 225,239.5C 229.111,227.221 237.278,219.221 249.5,215.5 Z"/></g>
<g><path style="opacity:1" fill="#2188e5" d="M 333.5,215.5 C 358.326,216.156 370.159,228.823 369,253.5C 362.914,272.136 350.081,279.969 330.5,277C 313.732,270.643 306.232,258.477 308,240.5C 311.781,227.218 320.281,218.885 333.5,215.5 Z"/></g>
</svg>
